<?xml version="1.0" standalone="no"?>
<!DOCTYPE svg PUBLIC "-//W3C//DTD SVG 20010904//EN"
 "http://www.w3.org/TR/2001/REC-SVG-20010904/DTD/svg10.dtd">
<svg version="1.0" xmlns="http://www.w3.org/2000/svg"
 width="512.000000pt" height="512.000000pt" viewBox="0 0 512.000000 512.000000"
 preserveAspectRatio="xMidYMid meet">
<metadata>
Created by potrace 1.11, written by Peter Selinger 2001-2013
</metadata>
<g transform="translate(0.000000,512.000000) scale(0.100000,-0.100000)"
fill="#000000" stroke="none">
<path d="M2040 4979 c-168 -76 -318 -146 -335 -153 -16 -8 -79 -37 -140 -64
-60 -28 -144 -66 -185 -85 -41 -19 -97 -45 -125 -57 -203 -91 -316 -146 -341
-168 -12 -10 -28 -31 -37 -48 -12 -23 -151 -489 -162 -544 -2 -8 -24 -87 -49
-175 -49 -171 -124 -448 -131 -479 -3 -10 -9 -33 -14 -50 -9 -27 -116 -423
-126 -466 -2 -8 -15 -56 -29 -106 -51 -188 -170 -657 -218 -859 -44 -188 -50
-224 -52 -340 -4 -230 20 -268 223 -349 118 -47 191 -93 421 -268 80 -61 162
-118 170 -118 4 0 10 -3 12 -7 3 -8 70 -55 108 -78 10 -5 69 -41 131 -79 308
-186 613 -301 884 -332 33 -3 69 -8 80 -10 110 -21 569 -21 735 1 19 2 60 7
91 9 55 6 103 12 164 21 17 3 48 7 70 10 41 6 236 43 268 51 112 27 123 27
179 1 99 -48 312 -126 384 -142 10 -2 45 -11 77 -19 60 -17 246 -51 332 -61
80 -10 424 -13 493 -5 77 10 112 37 112 85 0 38 -34 85 -61 85 -14 0 -19 7
-20 28 -1 34 -1 633 0 650 1 6 9 12 19 12 28 0 62 42 62 77 0 36 -34 83 -61
83 -10 0 -19 6 -20 13 -1 16 -1 1294 0 1330 1 17 6 27 16 27 29 0 65 47 65 84
0 26 -8 41 -35 65 -122 107 -411 239 -591 270 -112 19 -139 22 -229 21 -132 0
-183 -8 -315 -47 -184 -55 -342 -154 -514 -325 -66 -65 -121 -118 -123 -118
-1 0 -26 15 -55 34 -194 123 -426 190 -658 189 -198 -1 -348 -38 -536 -133
-54 -28 -98 -49 -100 -47 -1 1 -5 61 -9 132 -3 72 -8 153 -10 180 -2 28 -7
102 -10 165 -3 63 -8 142 -10 175 -8 144 -17 294 -20 340 -2 27 -6 102 -10
165 -7 132 -8 141 -18 158 -6 8 -2 12 12 12 28 0 22 -1 94 19 35 10 77 26 95
35 l32 16 57 -55 c98 -94 190 -122 290 -88 60 21 102 63 396 398 14 17 51 57
82 90 71 77 97 132 97 205 0 81 -22 119 -195 340 -7 9 -41 54 -77 100 -35 47
-68 90 -72 95 -5 6 -47 60 -94 120 -85 109 -100 123 -139 124 -11 0 -157 -63
-325 -140z"/>
<path d="M3695 4769 c-235 -55 -382 -303 -320 -540 27 -100 60 -140 389 -469
176 -177 328 -325 336 -330 8 -6 28 -10 45 -10 25 0 74 44 358 328 180 180
339 346 353 370 46 79 62 141 60 238 -2 59 -9 104 -21 134 -71 173 -218 281
-391 286 -126 4 -224 -32 -315 -114 l-50 -45 -37 35 c-88 83 -172 119 -287
123 -44 2 -98 -1 -120 -6z"/>
</g>
</svg>
